# xmcd CD database file
#
# Track frame offsets:
#	182
#	29145
#	72390
#	106877
#	144422
#	176442
#	215720
#	242185
#	273232
#
# Disc length: 4043 seconds
#
# Revision: 0
# Processed by: cddbd v1.5.1PL0 Copyright (c) Steve Scherf et al.
# Submitted via: CDex 1.51
#
DISCID=890fc909
DTITLE=George Cables Trio - Skylark
DYEAR=1996
DGENRE=Jazz
TTITLE0=Fungii Mama
TTITLE1=Fee-Fi-Fo-Fum
TTITLE2=Manha De Carnival
TTITLE3=Skylark
TTITLE4=Samba De Orfeu
TTITLE5=Someday My Prince Will Come
TTITLE6=A Felicidade
TTITLE7=Pannonica
TTITLE8=Dolahin
EXTD=YEAR: 1996
EXTT0=
EXTT1=
EXTT2=
EXTT3=
EXTT4=
EXTT5=
EXTT6=
EXTT7=
EXTT8=
PLAYORDER=
